<svg xmlns="http://www.w3.org/2000/svg" width="191" height="263" viewBox="0 0 191 263" version="1.1"><path d="M 0.090 7.750 C 0.162 13.898, 0.361 14.880, 1.056 12.500 C 2.379 7.966, 7.024 3.073, 11.500 1.496 L 15.500 0.088 7.750 0.044 L 0 0 0.090 7.750 M 118.022 28.250 C 118.047 59.923, 118.493 62.363, 125.133 67.099 C 128.481 69.487, 128.665 69.502, 158.250 69.792 L 188 70.084 188 158.156 L 188 246.228 185.761 250.212 C 184.510 252.438, 181.713 255.256, 179.423 256.598 L 175.324 259 94.727 259 C 40.066 259, 13.224 258.657, 11.315 257.933 C 7.312 256.417, 4.026 253.128, 1.890 248.500 L 0.044 244.500 0.022 253.755 L 0 263.010 95.750 262.755 L 191.500 262.500 191.476 253.250 C 191.463 248.162, 191.351 189.100, 191.226 122 L 191 0 154.500 0 L 118 0 118.022 28.250 M 47.201 129.028 C 40.194 135.555, 46.942 147.008, 55.945 143.869 C 59.144 142.754, 62 138.630, 62 135.126 C 62 134.041, 60.835 131.769, 59.411 130.077 C 56.226 126.292, 50.652 125.813, 47.201 129.028 M 76.200 135.750 L 76.500 141.500 108.750 141.764 L 141 142.028 141 136.014 L 141 130 108.450 130 L 75.900 130 76.200 135.750 M 46.923 158.923 C 44.928 160.918, 44 162.848, 44 165 C 44 169.302, 48.698 174, 53 174 C 57.302 174, 62 169.302, 62 165 C 62 160.698, 57.302 156, 53 156 C 50.848 156, 48.918 156.928, 46.923 158.923 M 76 165 L 76 171 108.500 171 L 141 171 141 165 L 141 159 108.500 159 L 76 159 76 165 M 47.025 187.975 C 44.293 190.707, 43.543 194.483, 45.024 198.058 C 49.038 207.748, 64.685 202.035, 61.512 192.038 C 59.676 186.252, 51.142 183.858, 47.025 187.975 M 108.201 188.750 L 75.901 189.028 76.201 194.764 L 76.500 200.500 108.744 200.500 L 140.988 200.500 140.994 194.250 C 140.997 190.813, 140.887 188.106, 140.750 188.236 C 140.613 188.365, 125.965 188.597, 108.201 188.750 M 0.360 254 C 0.360 259.225, 0.529 261.363, 0.735 258.750 C 0.941 256.137, 0.941 251.863, 0.735 249.250 C 0.529 246.637, 0.360 248.775, 0.360 254" stroke="none" fill="#e5e0f0" fill-rule="evenodd"/><path d="M 11.500 1.496 C 6.821 3.144, 2.371 8.007, 0.988 12.983 C 0.378 15.180, 0.017 59.295, 0.028 130.500 C 0.043 239.202, 0.130 244.686, 1.890 248.500 C 4.026 253.128, 7.312 256.417, 11.315 257.933 C 13.224 258.657, 40.066 259, 94.727 259 L 175.324 259 179.423 256.598 C 181.713 255.256, 184.510 252.438, 185.761 250.212 L 188 246.228 188 158.156 L 188 70.084 158.250 69.792 C 128.665 69.502, 128.481 69.487, 125.133 67.099 C 118.493 62.363, 118.047 59.923, 118.022 28.250 L 118 0 66.750 0.044 C 25.320 0.079, 14.734 0.358, 11.500 1.496 M 47.201 129.028 C 40.194 135.555, 46.942 147.008, 55.945 143.869 C 59.144 142.754, 62 138.630, 62 135.126 C 62 134.041, 60.835 131.769, 59.411 130.077 C 56.226 126.292, 50.652 125.813, 47.201 129.028 M 76.200 135.750 L 76.500 141.500 108.750 141.764 L 141 142.028 141 136.014 L 141 130 108.450 130 L 75.900 130 76.200 135.750 M 46.923 158.923 C 44.928 160.918, 44 162.848, 44 165 C 44 169.302, 48.698 174, 53 174 C 57.302 174, 62 169.302, 62 165 C 62 160.698, 57.302 156, 53 156 C 50.848 156, 48.918 156.928, 46.923 158.923 M 76 165 L 76 171 108.500 171 L 141 171 141 165 L 141 159 108.500 159 L 76 159 76 165 M 47.025 187.975 C 44.293 190.707, 43.543 194.483, 45.024 198.058 C 49.038 207.748, 64.685 202.035, 61.512 192.038 C 59.676 186.252, 51.142 183.858, 47.025 187.975 M 108.201 188.750 L 75.901 189.028 76.201 194.764 L 76.500 200.500 108.744 200.500 L 140.988 200.500 140.994 194.250 C 140.997 190.813, 140.887 188.106, 140.750 188.236 C 140.613 188.365, 125.965 188.597, 108.201 188.750" stroke="none" fill="#6e43bb" fill-rule="evenodd"/></svg>